<?xml version="1.0" encoding="utf-8"?>
<svg version="1.1" xmlns="http://www.w3.org/2000/svg" xmlns:xlink="http://www.w3.org/1999/xlink" x="0px" y="0px"
	 viewBox="0 0 923.1 151.5" style="enable-background:new 0 0 923.1 151.5;" xml:space="preserve">
<path fill="#140f4b" class="st0" d="M242.7,87.7c-1.3-16.1-9.7-25.6-26.7-25.6c-15.7,0-25.4,9.9-27.1,25.6L242.7,87.7z M268,93.7
	c0,5.2-0.4,10.5-1.3,14.8h-77.4c2.8,12.9,13.8,20.9,34.4,20.9c0.1,0,0.2,0,0.3,0c0.1,0,0.1,0,0.2,0c1.3,0,2.6-0.1,3.8-0.1
	c0.7,0,1.4-0.1,2-0.1c0.5-0.1,1.1-0.1,1.6-0.1c8.6-0.9,16.8-3.2,24.3-6.7c0.6-0.3,1.2-0.6,1.8-0.9h0c1.5-0.8,3-1.6,4.5-2.5h0.7v21.8
	c-11.3,6.9-24.6,10.8-38.8,10.8v-0.1c-0.5,0-1,0.1-1.6,0.1c-38.9,0-60.2-22.1-60.2-54.4c0-34.6,21.9-57.4,53.7-57.4
	S268,62.3,268,93.7 M0,149.4h26.4l4.9-92.6l1.1-25.2h0.4l5.6,25.2L60,149.4h33.1l21.7-92.6l5.4-25.2h0.4l1.1,25.2l5.2,92.6h27.5
	l-9-148.3h-43.8l-19.8,89l-4.3,22.6H77l-4.5-22.6l-19.8-89H8.8L0,149.4z M455.1,151.5c-24.7,0-38.7-11.4-38.7-37.2V63.6h-29.7v53.9
	c0,8,3,11.2,9.5,11.2c1.5,0,3.2,0,5.2-0.4h0.6v21.1c-2.6,0.6-7.7,1.3-11.6,1.3c-14.6,0-23.7-5.6-27.5-17.8
	c-7.7,12-20,18.7-35.2,18.7c-27.3,0-49.4-21.3-49.4-56.1c0-34.4,22.1-55.7,49.4-55.7c13.5,0,24.7,5.2,32.4,14.6V1.1h26.7v40.8h29.7
	V16.3H443v25.6h28.6v21.7H443v49.4c0,10.7,5.4,15.9,15.7,15.9c4.7,0,7.9-0.4,12.2-1.5h0.6v21.9C466.4,150.7,460.2,151.5,455.1,151.5
	 M333.2,129c18.1,0,28.2-14,28.2-33.5c0-19.3-10.1-33.3-28.2-33.3c-18.3,0-27.7,14-27.7,33.3C305.4,115,314.9,129,333.2,129
	 M510.1,93.1c0-17.4,9-27.1,26.2-27.1c3,0,6.2,0.4,9.2,1.3h0.4V42.3c-2.8-1.1-6.4-1.7-10.5-1.7c-12.9,0-21.5,8-26.4,20.8V41.9h-25.6
	v107.5h26.7L510.1,93.1z M602.9,151.5c-33.7,0-56.5-24.5-56.5-55.9s22.8-55.9,56.5-55.9c33.5,0,56.3,24.5,56.3,55.9
	S636.5,151.5,602.9,151.5 M602.9,128.5c19.1,0,29-14,29-32.9s-9.9-32.9-29-32.9c-18.7,0-29.2,14-29.2,32.9S584.2,128.5,602.9,128.5
	 M700.2,89.4c0-16.6,8.4-27.3,23.9-27.3c15.3,0,22.4,10.1,22.4,27.3v60H773v-61c0-25.8-13.3-48.6-42.3-48.6
	c-15.5,0-25.8,7.7-31.6,19.3V41.9h-25.6v107.5h26.7V89.4z M820.1,15.7c0,8.6-6.9,15.9-15.9,15.9c-8.6,0-15.7-7.3-15.7-15.9
	S795.6,0,804.2,0C813.2,0,820.1,7.1,820.1,15.7 M834.9,149.4c-4.1,0.9-8.8,1.5-13.1,1.5c-20.4,0-31.4-10.8-31.4-30.5V41.9h26.9v76.5
	c0,7.1,3.4,10.5,10.8,10.5c1.7,0,3.9-0.2,6.2-0.6h0.6L834.9,149.4z M837.5,95.7c0-31.4,22.8-55.9,56.7-55.9c9.7,0,20.6,2.4,28.8,6.9
	v23.6h-0.6c-8.4-4.9-16.8-7.3-26.2-7.3c-20.4,0-31.4,14-31.4,32.7s11,32.7,31.4,32.7c9.5,0,17.8-2.4,26.2-7.3h0.6v23.6
	c-8.2,4.5-19.1,6.9-28.8,6.9C860.3,151.5,837.5,127,837.5,95.7"/>
</svg>
